<svg xmlns="http://www.w3.org/2000/svg" xmlns:xlink="http://www.w3.org/1999/xlink" id="Layer_1" x="0" y="0" enable-background="new 0 0 20 20" version="1.1" viewBox="0 0 20 20" xml:space="preserve"><path fill="#BDBDBD" d="M10,0C4.5,0,0,4.5,0,10s4.5,10,10,10s10-4.5,10-10S15.5,0,10,0z M10,18c-4.4,0-8-3.6-8-8s3.6-8,8-8	s8,3.6,8,8S14.4,18,10,18z"/><path fill="#BDBDBD" d="M16.2,6.8c-0.4-0.4-1-0.4-1.4,0l-3.3,3.3L9.2,7.8c-0.4-0.4-1-0.4-1.4,0l-6,6c-0.4,0.4-0.4,1,0,1.4	c0.4,0.4,1,0.4,1.4,0l5.3-5.3l2.3,2.3c0.4,0.4,1,0.4,1.4,0l4-4C16.6,7.8,16.6,7.2,16.2,6.8z"/></svg>